# xmcd CD database file
#
# Track frame offsets:
#	150
#	34371
#	87895
#	133013
#	166561
#	215106
#	262613
#
# Disc length: 3849 seconds
#
# Revision: 0
# Processed by: cddbd v1.5.2PL0 Copyright (c) Steve Scherf et al.
# Submitted via: CDex 1.51
#
DISCID=560f0707
DTITLE=Done Mensa, Bobby Jones, John Bacon - Jack Rabbit
DYEAR=2003
DGENRE=Jazz
TTITLE0=Jack Rabbit
TTITLE1=Body and Soul
TTITLE2=The Right Spice
TTITLE3=One Day
TTITLE4=Soldier in the Rain
TTITLE5=My Foolish Heart
TTITLE6=La Conga Loca
EXTD=YEAR: 2003
EXTT0=
EXTT1=
EXTT2=
EXTT3=
EXTT4=
EXTT5=
EXTT6=
PLAYORDER=
